<?xml version="1.0" standalone="no"?>
<!DOCTYPE svg PUBLIC "-//W3C//DTD SVG 20010904//EN"
 "http://www.w3.org/TR/2001/REC-SVG-20010904/DTD/svg10.dtd">
<svg version="1.0" xmlns="http://www.w3.org/2000/svg"
 width="461.000000pt" height="418.000000pt" viewBox="0 0 461.000000 418.000000"
 preserveAspectRatio="xMidYMid meet">

<g transform="translate(0.000000,418.000000) scale(0.100000,-0.100000)"
fill="#000000" stroke="none">
<path d="M2635 3770 c-3 -5 1 -10 10 -10 9 0 13 5 10 10 -3 6 -8 10 -10 10 -2
0 -7 -4 -10 -10z"/>
<path d="M1887 3762 c6 -4 -8 -8 -30 -9 -72 -3 -329 -96 -367 -132 -9 -9 -32
-25 -51 -35 l-34 -19 28 -8 c16 -4 40 -4 54 2 28 10 53 -3 53 -27 0 -8 6 -14
13 -14 8 0 7 -4 -3 -11 -12 -9 -10 -10 8 -6 17 4 21 2 13 -7 -7 -8 -3 -20 12
-38 28 -34 64 -29 92 14 19 28 70 60 178 108 26 12 44 26 41 32 -3 5 2 18 11
28 9 10 14 24 10 29 -3 6 2 11 12 11 14 0 15 2 4 9 -11 7 -9 14 14 35 15 14
34 26 41 26 8 0 14 5 14 10 0 13 -12 13 -46 0 -19 -8 -30 -8 -38 0 -5 5 -17
10 -25 10 -11 0 -12 -3 -4 -8z"/>
<path d="M2540 3766 c0 -9 39 -13 51 -5 10 6 4 9 -18 9 -18 0 -33 -2 -33 -4z"/>
<path d="M2690 3760 c-8 -5 -10 -10 -5 -10 6 0 17 5 25 10 8 5 11 10 5 10 -5
0 -17 -5 -25 -10z"/>
<path d="M2710 3660 c-25 -25 -20 -35 22 -49 30 -10 31 -9 14 4 -28 21 -4 45
45 45 22 0 39 5 39 10 0 6 -22 10 -50 10 -37 0 -55 -5 -70 -20z"/>
<path d="M2278 3600 c-14 -11 -37 -24 -52 -30 -14 -5 -26 -17 -26 -26 0 -12 8
-15 37 -12 25 2 38 -1 41 -12 4 -13 3 -13 -11 -2 -13 11 -17 11 -24 -1 -4 -8
-24 -21 -43 -29 -26 -11 -39 -25 -48 -52 -17 -45 -11 -55 18 -28 29 26 86 32
134 13 32 -12 35 -16 20 -22 -15 -6 -16 -8 -3 -8 9 -1 22 5 28 13 9 11 5 15
-19 19 -16 4 -30 11 -30 16 0 11 62 -10 86 -29 21 -17 24 -28 -32 105 -20 50
-40 94 -44 98 -4 4 -18 -1 -32 -13z"/>
<path d="M2532 3609 c3 -8 20 -15 39 -17 36 -2 26 9 -20 23 -17 5 -22 4 -19
-6z"/>
<path d="M2871 3602 c-7 -13 -7 -22 2 -31 9 -9 2 -8 -23 1 -19 8 -71 13 -115
13 -44 0 -83 5 -87 10 -5 6 -11 5 -17 -3 -4 -8 -25 -14 -45 -15 -46 -1 -48 6
41 -203 l68 -159 49 -3 c27 -2 61 0 75 3 25 6 25 7 7 21 -11 8 -27 14 -37 14
-18 0 -73 39 -65 47 3 3 17 -4 33 -14 15 -11 55 -30 88 -43 33 -13 72 -35 87
-48 l26 -24 27 41 c57 85 147 109 223 58 32 -21 60 -61 143 -205 93 -162 131
-210 115 -148 -4 17 0 21 20 22 18 2 28 -5 35 -23 5 -14 7 -28 4 -33 -3 -4 3
-14 12 -21 14 -13 16 -11 11 13 -5 25 -3 27 18 24 13 -3 31 -12 40 -20 20 -20
63 -21 70 -1 10 25 25 17 18 -10 -4 -15 -2 -25 5 -25 14 0 15 57 1 73 -6 7
-22 26 -35 42 l-25 30 30 3 c22 2 40 -5 70 -30 22 -18 40 -38 40 -44 0 -18 27
-37 35 -24 10 17 25 11 37 -15 6 -14 17 -25 25 -25 24 0 13 -20 -14 -26 -52
-11 -53 -12 -53 -59 0 -38 3 -45 19 -45 11 0 23 5 26 10 4 6 11 7 17 4 7 -5 9
2 6 20 -3 14 -2 29 3 32 10 6 49 -27 49 -42 0 -6 11 -14 25 -16 14 -3 25 -1
25 4 0 17 -94 195 -144 273 -101 156 -276 342 -299 318 -4 -3 -16 10 -27 30
-21 36 -59 67 -82 67 -7 0 -33 14 -58 31 -25 17 -57 33 -73 36 -25 5 -26 7
-10 19 17 13 16 15 -7 34 -14 11 -34 23 -45 26 -11 4 -31 15 -44 26 -15 11
-28 15 -34 9 -5 -5 -36 -6 -69 -3 -46 4 -59 2 -54 -7 6 -9 0 -10 -20 -5 -16 4
-25 3 -21 -2 6 -11 -33 -11 -51 0 -19 11 -14 -9 9 -38 11 -14 16 -26 12 -26
-5 0 -19 17 -31 39 -31 55 -48 67 -61 43z m623 -641 c3 -4 3 -11 0 -14 -8 -8
-34 3 -34 14 0 11 27 12 34 0z"/>
<path d="M1380 3570 c-9 -6 -10 -10 -3 -10 6 0 15 5 18 10 8 12 4 12 -15 0z"/>
<path d="M1908 3563 c-16 -2 -28 -9 -28 -15 0 -13 78 -4 93 11 11 11 -8 13
-65 4z"/>
<path d="M1186 3442 c-8 -13 11 -35 23 -28 16 10 14 36 -3 36 -8 0 -17 -4 -20
-8z"/>
<path d="M1125 3397 c-8 -4 -15 -13 -15 -19 0 -6 9 -3 19 6 11 10 21 13 25 7
4 -5 2 -12 -4 -16 -5 -3 -11 -16 -11 -28 -1 -16 -3 -17 -6 -5 -6 22 -27 13
-49 -19 -16 -26 -16 -26 10 -21 28 6 37 -15 11 -26 -8 -3 -15 -12 -15 -20 0
-18 -47 -56 -69 -56 -10 1 -7 6 10 15 32 17 43 41 23 49 -12 4 -12 10 -4 26 6
11 7 20 2 20 -5 0 -17 -15 -26 -32 -8 -18 -16 -30 -16 -25 0 14 -58 -22 -79
-49 -26 -33 -17 -52 12 -27 21 17 20 16 -1 -8 -12 -14 -19 -28 -16 -32 6 -6
17 1 55 36 12 11 19 13 19 5 -1 -16 -43 -48 -71 -53 -12 -3 -33 -12 -47 -22
-13 -10 -32 -22 -40 -28 -29 -18 -40 -32 -87 -104 -86 -133 -182 -366 -202
-486 -6 -38 -5 -39 13 -25 10 8 23 22 28 30 8 12 11 10 17 -10 6 -23 7 -23 8
8 1 17 5 32 11 32 6 0 7 18 3 47 -4 31 -3 44 4 40 9 -6 29 36 25 54 -2 13 76
80 99 84 66 14 79 15 79 5 0 -5 7 -7 16 -3 10 4 22 0 28 -9 10 -13 23 11 75
135 35 84 95 218 133 300 38 81 66 152 62 158 -3 6 4 21 17 35 12 13 17 24 10
24 -7 0 -10 4 -6 9 7 12 -29 10 -50 -2z"/>
<path d="M2156 3377 c-23 -10 -34 -27 -57 -91 -16 -44 -27 -81 -25 -83 2 -2
32 1 67 6 69 11 142 5 136 -12 -2 -6 8 -21 21 -32 21 -18 23 -24 12 -41 -11
-17 -8 -27 19 -71 l32 -52 46 5 c50 4 109 38 119 67 3 10 -18 74 -51 152 -53
125 -59 134 -83 134 -43 -1 -112 13 -112 22 0 13 -91 10 -124 -4z"/>
<path d="M1393 3318 c-31 -34 -198 -376 -189 -386 2 -1 17 11 34 28 18 18 41
30 56 30 14 0 26 5 26 10 0 6 -4 10 -10 10 -15 0 -12 17 7 47 10 14 19 35 20
46 5 28 60 95 93 112 16 8 32 20 36 26 4 8 0 8 -15 0 -13 -7 -21 -8 -21 -2 0
6 -8 8 -17 5 -10 -2 -3 3 15 12 17 10 32 22 32 28 -1 11 -35 56 -42 56 -3 0
-14 -10 -25 -22z"/>
<path d="M2705 3190 c3 -5 10 -10 16 -10 5 0 9 5 9 10 0 6 -7 10 -16 10 -8 0
-12 -4 -9 -10z"/>
<path d="M881 3147 c-13 -21 -12 -21 5 -5 10 10 16 20 13 22 -3 3 -11 -5 -18
-17z"/>
<path d="M1570 3047 c-65 -17 -147 -63 -155 -87 -3 -11 -12 -20 -18 -20 -7 0
-4 -5 6 -11 9 -6 15 -15 11 -20 -3 -6 -3 -20 0 -32 4 -19 12 -22 53 -21 26 0
58 4 69 8 17 5 28 -1 50 -31 16 -21 34 -47 41 -58 6 -11 16 -19 22 -17 6 1 11
-4 11 -12 0 -7 7 -19 15 -26 12 -10 16 -9 21 4 3 9 12 16 20 16 8 0 14 7 14
16 0 8 -5 12 -11 9 -14 -9 -5 51 11 70 6 8 9 19 5 25 -3 5 -1 10 4 10 6 0 11
5 11 10 0 13 -121 180 -129 179 -3 0 -26 -6 -51 -12z"/>
<path d="M1420 3030 c-8 -5 -12 -12 -9 -15 4 -3 12 1 19 10 14 17 11 19 -10 5z"/>
<path d="M1360 3000 c-8 -5 -10 -10 -5 -10 6 0 17 5 25 10 8 5 11 10 5 10 -5
0 -17 -5 -25 -10z"/>
<path d="M3163 2945 c3 -5 10 -29 16 -52 10 -37 81 -139 81 -116 0 5 -11 20
-25 33 -18 17 -24 31 -20 55 2 17 -1 38 -6 46 -5 7 -9 10 -9 4 0 -5 -10 1 -21
15 -11 14 -19 21 -16 15z"/>
<path d="M1264 2919 c-6 -8 -15 -24 -18 -37 -9 -27 -40 -45 -65 -37 -14 4 -21
-4 -34 -37 -9 -23 -15 -43 -13 -45 2 -2 29 16 60 42 70 56 116 85 138 85 9 0
20 6 24 13 4 6 4 9 -1 5 -4 -4 -14 -3 -22 3 -10 9 -18 8 -32 -5 -19 -17 -20
-17 -23 5 -2 18 -5 20 -14 8z"/>
<path d="M3542 2819 c2 -6 6 -9 8 -7 3 1 22 -14 44 -34 39 -37 66 -40 66 -8 0
12 -6 17 -17 14 -10 -3 -33 7 -52 21 -37 27 -55 32 -49 14z"/>
<path d="M3670 2785 c27 -29 32 -28 23 3 -3 14 -13 22 -26 22 -20 0 -20 -1 3
-25z"/>
<path d="M3153 2701 l-22 -28 23 -19 c69 -58 83 -64 156 -64 38 0 70 4 70 9 0
11 -90 81 -105 81 -6 0 -26 11 -45 25 -43 32 -52 31 -77 -4z"/>
<path d="M1129 2613 c-12 -38 -53 -157 -90 -265 l-68 -198 89 0 89 0 27 84 27
83 66 7 c36 3 97 6 134 6 117 0 149 29 199 181 30 93 31 102 18 127 -9 14 -26
29 -40 33 -14 4 -116 7 -227 8 l-201 1 -23 -67z m305 -32 c6 -9 -31 -129 -47
-148 -6 -8 -36 -13 -83 -13 l-73 0 25 73 c13 39 26 78 29 85 5 14 140 17 149
3z"/>
<path d="M1734 2635 c-24 -58 -20 -65 34 -65 26 0 63 3 83 6 32 5 38 11 48 44
6 20 11 40 11 44 0 3 -36 6 -81 6 l-80 0 -15 -35z"/>
<path d="M1695 2520 c-6 -10 -125 -360 -125 -368 0 -1 39 -1 87 0 l86 3 59
175 c32 96 58 180 58 187 0 16 -155 18 -165 3z"/>
<path d="M2010 2520 c-59 -14 -94 -64 -135 -193 -34 -105 -36 -117 -23 -143
l13 -29 183 -3 c142 -2 182 0 182 10 0 7 3 23 6 36 6 22 5 22 -94 22 -56 0
-103 4 -106 9 -8 12 53 188 71 206 11 11 40 15 114 15 l100 0 15 35 c7 19 14
37 14 40 0 8 -301 4 -340 -5z"/>
<path d="M2477 2520 c-61 -11 -82 -41 -127 -174 -42 -127 -48 -164 -28 -184 9
-9 71 -12 219 -12 l207 0 30 28 c23 21 39 58 71 157 46 139 47 170 5 185 -29
11 -320 11 -377 0z m215 -76 c8 -7 -57 -201 -73 -220 -16 -20 -108 -19 -115 1
-5 11 47 189 63 218 5 8 117 10 125 1z"/>
<path d="M3035 2511 c-53 -24 -68 -44 -94 -120 -26 -80 -27 -107 -2 -121 11
-5 69 -10 130 -10 61 0 111 -4 111 -9 0 -39 -9 -41 -155 -41 -140 0 -143 0
-149 -22 -3 -13 -6 -26 -6 -30 0 -5 94 -8 209 -8 204 0 209 0 233 23 26 24 71
140 71 183 0 48 -16 54 -144 54 -91 0 -119 3 -119 13 0 31 24 37 152 37 l128
0 10 26 c6 14 10 30 10 35 0 5 -72 9 -172 9 -146 0 -179 -3 -213 -19z"/>
<path d="M602 2430 c0 -14 2 -19 5 -12 2 6 2 18 0 25 -3 6 -5 1 -5 -13z"/>
<path d="M2336 2082 c-6 -11 -56 -188 -56 -201 0 -6 17 -11 39 -11 37 0 38 1
47 42 13 61 42 65 46 6 l3 -43 44 -3 43 -3 -6 43 c-5 35 -3 46 13 60 25 21 39
97 20 109 -17 11 -186 12 -193 1z m124 -41 c0 -27 -15 -41 -42 -41 -23 0 -29
4 -24 16 3 9 6 20 6 25 0 5 14 9 30 9 17 0 30 -4 30 -9z"/>
<path d="M875 2068 c-7 -23 -55 -197 -55 -202 0 -4 18 -6 39 -6 37 0 40 2 48
38 l9 37 62 3 c51 2 65 7 76 25 23 35 31 98 15 108 -23 14 -189 11 -194 -3z
m125 -37 c0 -33 -21 -61 -46 -61 -22 0 -25 3 -20 23 3 12 6 28 6 35 0 7 13 12
30 12 17 0 30 -4 30 -9z"/>
<path d="M3533 2033 c-49 -4 -52 -6 -66 -41 -25 -64 -31 -104 -16 -113 8 -5
51 -9 95 -9 79 0 94 6 94 36 0 2 -27 4 -61 4 -44 0 -60 3 -57 13 3 7 29 13 70
15 58 3 67 5 72 25 16 59 2 79 -52 75 -15 -1 -50 -3 -79 -5z m61 -48 c-4 -8
-17 -15 -30 -15 -15 0 -24 6 -24 15 0 10 10 15 30 15 22 0 28 -4 24 -15z"/>
<path d="M2750 2015 c0 -12 13 -15 56 -15 34 0 53 -4 49 -10 -3 -5 -28 -10
-56 -10 -61 0 -89 -24 -89 -75 l0 -35 97 2 98 3 14 61 c21 91 18 94 -84 94
-69 0 -85 -3 -85 -15z m88 -87 c-4 -30 -48 -39 -48 -10 0 24 8 32 32 32 14 0
19 -6 16 -22z"/>
<path d="M3130 2016 c-6 -8 -17 -37 -25 -65 -19 -72 -8 -83 79 -79 80 3 104
25 34 30 -39 3 -43 5 -40 27 9 60 19 71 67 71 33 0 45 4 45 15 0 21 -142 22
-160 1z"/>
<path d="M1256 1956 c-8 -35 -18 -70 -22 -79 -5 -14 1 -17 34 -17 39 0 40 1
52 48 16 58 20 62 62 71 19 4 34 14 36 23 3 14 -8 17 -71 17 l-75 0 -16 -63z"/>
<path d="M1594 1984 c-9 -21 -16 -55 -17 -78 l-2 -41 79 -3 c99 -4 118 7 134
78 19 84 24 80 -84 80 l-95 0 -15 -36z m126 -9 c0 -35 -29 -85 -49 -85 -24 0
-27 20 -10 69 8 23 17 31 35 31 15 0 24 -6 24 -15z"/>
<path d="M820 1750 l0 -40 50 0 50 0 0 40 c0 29 -4 40 -15 40 -10 0 -15 -10
-15 -31 0 -24 -4 -30 -17 -27 -11 2 -19 14 -21 31 -5 45 -32 34 -32 -13z"/>
<path d="M1022 1753 l3 -38 53 -3 c31 -2 52 1 52 7 0 6 -16 11 -35 11 -32 0
-35 2 -35 30 0 24 -4 30 -21 30 -17 0 -20 -5 -17 -37z"/>
<path d="M1210 1780 c0 -5 9 -10 20 -10 16 0 20 -7 20 -30 0 -20 5 -30 15 -30
10 0 15 10 15 30 0 23 4 30 20 30 11 0 20 5 20 10 0 6 -25 10 -55 10 -30 0
-55 -4 -55 -10z"/>
<path d="M1430 1750 c0 -33 3 -40 20 -40 12 0 20 7 20 17 0 15 1 15 18 0 33
-30 48 -22 44 23 l-4 40 -49 0 -49 0 0 -40z m65 10 c-3 -5 -10 -10 -16 -10 -5
0 -9 5 -9 10 0 6 7 10 16 10 8 0 12 -4 9 -10z"/>
<path d="M1667 1755 c-20 -43 -21 -45 -4 -45 8 0 19 12 26 26 6 15 14 24 18
21 3 -4 1 -13 -6 -21 -9 -11 -5 -15 25 -20 20 -4 38 -5 41 -2 3 3 -5 21 -17
40 -29 48 -60 48 -83 1z"/>
<path d="M2041 1769 c8 -15 8 -19 0 -15 -7 5 -11 -2 -11 -18 0 -14 5 -26 10
-26 6 0 10 8 10 18 1 16 1 16 11 0 12 -21 55 -24 62 -5 4 10 6 10 6 0 1 -7 10
-13 21 -13 17 0 20 7 20 40 0 36 -3 40 -25 40 -15 0 -29 -8 -36 -22 l-12 -22
-15 22 c-8 12 -23 22 -34 22 -16 0 -17 -3 -7 -21z"/>
<path d="M2301 1755 c-25 -43 -25 -45 -6 -45 8 0 21 12 30 28 12 20 14 22 10
5 -5 -18 0 -22 25 -28 42 -9 46 -2 23 37 -27 47 -55 48 -82 3z"/>
<path d="M2500 1750 c0 -33 3 -40 20 -40 16 0 20 7 20 30 0 25 4 30 23 30 20
-1 21 -2 5 -14 -17 -12 -17 -14 0 -30 29 -25 39 -19 40 24 l2 40 -55 0 -55 0
0 -40z"/>
<path d="M2742 1750 c-18 -32 -19 -40 -8 -40 8 0 17 4 21 9 3 6 18 6 38 0 55
-16 59 -13 37 31 -28 54 -57 54 -88 0z"/>
<path d="M2930 1780 c0 -5 6 -10 14 -10 7 0 16 -13 20 -30 3 -18 12 -30 21
-30 10 0 15 10 15 30 0 20 5 30 15 30 8 0 15 5 15 10 0 6 -22 10 -50 10 -27 0
-50 -4 -50 -10z"/>
<path d="M3140 1750 c0 -33 3 -40 20 -40 17 0 20 7 20 40 0 33 -3 40 -20 40
-17 0 -20 -7 -20 -40z"/>
<path d="M3220 1775 c0 -8 -7 -15 -15 -15 -8 0 -15 -4 -15 -10 0 -5 7 -10 15
-10 8 0 15 -7 15 -15 0 -8 9 -15 20 -15 17 0 20 7 20 40 0 33 -3 40 -20 40
-11 0 -20 -7 -20 -15z"/>
<path d="M3360 1750 l0 -40 50 0 50 0 0 40 0 40 -50 0 -50 0 0 -40z m70 -1 c0
-14 -5 -19 -17 -17 -26 5 -29 38 -4 38 15 0 21 -6 21 -21z"/>
<path d="M3601 1750 c18 -22 41 -40 51 -40 14 0 18 8 18 40 0 29 -4 40 -15 40
-8 0 -15 -7 -15 -17 0 -15 -1 -15 -18 0 -10 10 -26 17 -36 17 -14 0 -11 -8 15
-40z"/>
<path d="M3570 1741 c0 -17 5 -31 10 -31 6 0 10 11 10 24 0 14 -4 28 -10 31
-6 4 -10 -7 -10 -24z"/>
<path d="M1640 520 l0 -80 40 0 c22 0 40 5 40 10 0 6 -16 10 -35 10 -31 0 -35
3 -35 25 0 22 4 25 35 25 19 0 35 5 35 10 0 6 -16 10 -35 10 -31 0 -35 3 -35
25 0 22 4 25 35 25 19 0 35 5 35 10 0 6 -18 10 -40 10 l-40 0 0 -80z"/>
<path d="M1856 584 c-26 -25 -21 -35 44 -83 21 -16 22 -21 11 -35 -17 -20 -25
-20 -46 0 -20 20 -33 10 -15 -11 8 -10 25 -15 44 -13 27 3 31 7 34 36 3 29 -1
34 -32 47 -24 10 -36 22 -36 35 0 22 29 27 48 8 6 -6 14 -9 17 -6 8 8 -24 38
-40 38 -7 0 -21 -7 -29 -16z"/>
<path d="M2040 590 c0 -5 9 -10 20 -10 17 0 20 -8 23 -72 l3 -73 2 73 c2 65 4
72 23 72 11 0 17 5 14 10 -3 6 -24 10 -46 10 -21 0 -39 -4 -39 -10z"/>
<path d="M2385 580 c-10 -11 -15 -23 -11 -27 4 -5 12 0 17 10 6 9 21 17 34 17
39 0 32 -39 -15 -85 -22 -21 -40 -43 -40 -47 0 -4 23 -8 51 -8 31 0 48 4 44
10 -3 6 -20 10 -38 10 l-31 0 37 38 c41 42 47 76 18 92 -29 15 -46 12 -66 -10z"/>
<path d="M2600 580 c-14 -14 -20 -33 -20 -64 0 -52 19 -76 60 -76 36 0 50 23
50 83 0 69 -48 99 -90 57z m65 -59 c0 -39 -4 -57 -17 -64 -28 -18 -48 9 -48
63 0 54 5 62 40 58 23 -3 25 -7 25 -57z"/>
<path d="M2825 591 c-3 -6 1 -11 9 -11 13 0 16 -13 16 -70 0 -42 4 -70 10 -70
7 0 10 29 8 77 -2 63 -6 78 -20 81 -9 2 -19 -2 -23 -7z"/>
<path d="M3030 585 c-7 -9 -9 -19 -5 -23 4 -4 10 -1 12 6 8 21 43 14 43 -8 0
-11 -7 -20 -15 -20 -22 0 -18 -17 5 -23 14 -3 20 -14 20 -31 0 -21 -5 -26 -25
-26 -13 0 -28 8 -34 17 -14 25 -25 9 -11 -16 20 -38 90 -20 90 24 0 13 -5 27
-10 30 -6 3 -7 17 -4 31 11 44 -38 73 -66 39z"/>
<path d="M2230 455 c0 -8 5 -15 10 -15 6 0 10 7 10 15 0 8 -4 15 -10 15 -5 0
-10 -7 -10 -15z"/>
</g>
</svg>
